<svg xmlns="http://www.w3.org/2000/svg" width="751" height="372" viewBox="0 0 751 372" fill="none"><style>@keyframes animate-svg-stroke-1 {  0% {    stroke-dashoffset: 2500px;    stroke-dasharray: 2500px;  }  100% {    stroke-dashoffset: 0;    stroke-dasharray: 2500px;  }}@keyframes animate-svg-stroke-2 {  0% {    stroke-dashoffset: 40px;    stroke-dasharray: 40px;  }  100% {    stroke-dashoffset: 0;    stroke-dasharray: 40px;  }}@keyframes animate-svg-fill-2 {  0% {    fill: transparent;  }  100% {    fill: rgb(195, 216, 234);  }}@keyframes animate-svg-stroke-3 {  0% {    stroke-dashoffset: 40px;    stroke-dasharray: 40px;  }  100% {    stroke-dashoffset: 0;    stroke-dasharray: 40px;  }}@keyframes animate-svg-fill-3 {  0% {    fill: transparent;  }  100% {    fill: rgb(195, 216, 234);  }}@keyframes animate-svg-stroke-4 {  0% {    stroke-dashoffset: 40px;    stroke-dasharray: 40px;  }  100% {    stroke-dashoffset: 0;    stroke-dasharray: 40px;  }}@keyframes animate-svg-fill-4 {  0% {    fill: transparent;  }  100% {    fill: rgb(195, 216, 234);  }}@keyframes animate-svg-stroke-5 {  0% {    stroke-dashoffset: 40px;    stroke-dasharray: 40px;  }  100% {    stroke-dashoffset: 0;    stroke-dasharray: 40px;  }}@keyframes animate-svg-fill-5 {  0% {    fill: transparent;  }  100% {    fill: rgb(195, 216, 234);  }}@keyframes animate-svg-stroke-6 {  0% {    stroke-dashoffset: 600px;    stroke-dasharray: 600px;  }  100% {    stroke-dashoffset: 0;    stroke-dasharray: 600px;  }}@keyframes animate-svg-stroke-7 {  0% {    stroke-dashoffset: 900px;    stroke-dasharray: 900px;  }  100% {    stroke-dashoffset: 0;    stroke-dasharray: 900px;  }}.svg-elem-1 {  animation: animate-svg-stroke-1 3s cubic-bezier(0.445, 0.05, 0.55, 0.95) 0s both;}.svg-elem-2 {  animation: animate-svg-stroke-2 3s cubic-bezier(0.445, 0.05, 0.55, 0.95) 0.15s both,             animate-svg-fill-2 2s cubic-bezier(0.47, 0, 0.745, 0.715) 1.1s both;}.svg-elem-3 {  animation: animate-svg-stroke-3 3s cubic-bezier(0.445, 0.05, 0.55, 0.95) 0.2s both,             animate-svg-fill-3 2s cubic-bezier(0.47, 0, 0.745, 0.715) 1.2s both;}.svg-elem-4 {  animation: animate-svg-stroke-4 3s cubic-bezier(0.445, 0.05, 0.55, 0.95) 0.25s both,             animate-svg-fill-4 2s cubic-bezier(0.47, 0, 0.745, 0.715) 1.3s both;}.svg-elem-5 {  animation: animate-svg-stroke-5 3s cubic-bezier(0.445, 0.05, 0.55, 0.95) 0.3s both,             animate-svg-fill-5 2s cubic-bezier(0.47, 0, 0.745, 0.715) 1.4s both;}.svg-elem-6 {  animation: animate-svg-stroke-6 3s cubic-bezier(0.445, 0.05, 0.55, 0.95) 0.35s both;}.svg-elem-7 {  animation: animate-svg-stroke-7 3s cubic-bezier(0.445, 0.05, 0.55, 0.95) 0.4s both;}</style><path d="M490.814 114.777C579.5 164.612 624 130.84 718 57.0561M490.814 114.777L461.32 102.186M490.814 114.777C492.363 115.647 494.94 118.341 496.503 120.592M430.851 88.6452C405.194 76.3462 391.266 71.8424 382.471 76.3462C370.18 82.6405 363.499 88.1553 363.499 130.655C363.499 173.155 332.807 182.789 277.499 182.789H81.5M430.851 88.6452L461.32 102.186M430.851 88.6452C429.303 87.7752 427.457 86.0298 425.894 83.779M461.32 102.186L491.546 88.7051C493.094 87.8385 494.94 86.0999 496.503 83.858M461.32 102.186L430.851 115.666C429.303 116.533 427.457 118.271 425.894 120.513M425.894 83.779C421.797 77.8802 419.643 68.51 429.876 62.3279L441.576 56.8712C443.747 56.3967 448.737 56.539 451.326 60.9044C454.563 66.3611 452.38 71.3433 448.158 73.7158C445.453 75.2358 434.035 80.2558 425.894 83.779ZM425.894 83.779C423.87 84.655 422.048 85.4385 420.613 86.0527C415.625 88.1879 407.694 92.7905 407.694 101.711C407.694 111.201 415.625 116.122 420.613 118.248C422.048 118.86 423.87 119.641 425.894 120.513M496.503 83.858C500.599 77.9824 502.754 68.649 492.521 62.4913L480.82 57.0561C478.649 56.5835 473.66 56.7252 471.07 61.0734C467.833 66.5086 470.017 71.4712 474.239 73.8344C476.944 75.3484 488.362 80.3486 496.503 83.858ZM496.503 83.858C498.527 84.7306 500.349 85.511 501.784 86.1227C506.772 88.2495 514.694 90.9435 514.694 101.719C514.694 112.538 506.772 116.183 501.784 118.318C500.349 118.933 498.528 119.716 496.503 120.592M496.503 120.592C500.6 126.491 502.754 135.861 492.521 142.043L480.821 147.5C478.65 147.974 473.66 147.832 471.071 143.467C467.834 138.01 470.018 133.028 474.24 130.655C476.945 129.135 488.362 124.115 496.503 120.592ZM425.894 120.513C421.797 126.389 419.643 135.722 429.876 141.88L441.576 147.315C443.748 147.788 448.737 147.646 451.327 143.298C454.564 137.862 452.38 132.9 448.158 130.537C445.453 129.023 434.035 124.022 425.894 120.513ZM145.5 183L110.358 147.858C106.607 144.107 101.52 142 96.2157 142H58M206.5 183L170.293 217.483C166.574 221.024 161.636 223 156.5 223H32.5" stroke="#C3D8EA" stroke-width="3" class="svg-elem-1"></path><circle cx="718" cy="57" r="6" fill="transparent" stroke="#C3D8EA" stroke-width="2" class="svg-elem-2"></circle><circle cx="59.5" cy="142" r="6" fill="transparent" stroke="#C3D8EA" stroke-width="2" class="svg-elem-3"></circle><circle cx="82.5" cy="182" r="6" fill="transparent" stroke="#C3D8EA" stroke-width="2" class="svg-elem-4"></circle><path d="M39 222C39 225.314 36.3137 228 33 228C29.6863 228 27 225.314 27 222C27 218.686 29.6863 216 33 216C36.3137 216 39 218.686 39 222Z" fill="transparent" stroke="#C3D8EA" stroke-width="2" class="svg-elem-5"></path><path d="M454.939 318.035C454.204 331.154 456.594 344.399 453.223 357.141C448.136 359.024 443.172 358.397 438.33 358.397C406.215 358.397 374.039 358.397 341.924 358.397C330.647 358.397 329.544 357.204 329.483 345.654C329.421 327.953 329.483 310.251 329.483 292.55C329.483 281 327.46 278.991 315.999 278.74C310.483 278.615 304.967 278.803 299.39 278.74C287.991 278.489 286.949 277.422 286.949 265.998C286.949 252.879 286.581 239.76 287.072 226.703C287.378 219.233 285.049 215.028 277.572 215.091V215.091C271.105 215.091 267.2 207.788 267.271 201.322C267.518 178.722 264.052 155.664 270.524 133.3C281.004 96.9555 305.703 75.8645 341.863 68.3947C352.343 66.2605 364.49 66.7264 375.89 70.0569" stroke="#001A33" stroke-width="2.99019" stroke-linecap="round" stroke-linejoin="round" class="svg-elem-6"></path><path d="M416.615 32.5997C401.768 39.4345 392.598 47.9122 382.573 63.2311C376.361 72.7238 364.062 94.8089 364.062 107.529C364 173.915 364.062 240.301 363.999 306.687C363.999 313.395 366.298 316.496 373.504 316.433C404.315 316.18 435.189 316.56 466.001 316.243C491.035 315.93 491.038 315.617 491.277 290.3L491.284 289.537C491.374 277.144 490.75 264.752 491.147 252.431C491.421 243.934 497.759 236.993 506.26 236.99C510.088 236.989 513.924 237.141 517.78 237.129C526.932 237.1 533.218 229.082 533.25 219.93L533.256 218.161C533.298 206.622 533.339 195.092 533.215 183.535C533.153 176.004 534.768 170.688 543.776 171.7C552.286 172.649 555.703 168.599 555.454 159.929C555.019 145.31 555.33 130.628 555.33 116.009C555.392 80.4432 539.427 53.6737 509.982 35.9538C479.916 17.9176 448.172 17.9809 416.615 32.5997Z" stroke="#001A33" stroke-width="2.99019" stroke-linecap="round" stroke-linejoin="round" class="svg-elem-7"></path></svg>