<svg xmlns="http://www.w3.org/2000/svg" width="756" height="187" viewBox="0 0 756 187" fill="none"><g clip-path="url(#clip0_39_2285)"><mask id="path-1-outside-1_39_2285" maskUnits="userSpaceOnUse" x="17.2961" y="17.2891" width="173" height="153" fill="black"><rect fill="white" x="17.2961" y="17.2891" width="173" height="153"></rect><path d="M86.2173 21.2558L86.4791 21.5796C100.9 29.3781 99.9871 48.5133 85.6969 56.0276C78.4092 59.8595 70.1372 62.9477 62.8367 66.9132C62.4509 67.1227 60.7369 67.7638 61.5853 68.2308C66.0681 70.695 71.3918 72.6355 76.0978 74.8154C82.3426 77.707 88.7563 80.8059 94.9797 83.7082C97.2077 84.1153 101.699 87.4248 103.628 87.4589C104.47 87.4739 106.214 86.6842 107.048 86.3188C118.716 81.2195 130.488 75.3016 141.853 70.0239C143.606 69.2096 145.339 68.4947 147.121 67.8141C147.141 66.9998 146.055 66.972 145.554 66.7027C137.843 62.5641 129.371 58.8208 121.795 54.4952C108.058 46.6518 108.996 26.7227 123.736 20.7781C132.099 17.4057 138.542 21.0998 145.961 24.9456C152.515 28.3426 158.649 31.9427 162.438 38.4482C166.997 46.2746 167.286 53.7611 164.579 62.0961C164.401 62.6432 164.189 63.5418 164.151 64.0847L174.048 69.1188C191.17 79.2415 193.304 102.829 177.69 115.546C173.702 118.793 168.473 120.623 164.125 123.304L166.076 129.625C167.69 144.238 161.465 153.697 149.26 160.265C144.481 162.836 138.384 166.775 132.893 167.704C117.446 170.32 106.465 153.727 114.236 140.376C118.197 133.571 127.307 131.181 133.348 126.913L147.122 119.912C146.695 118.878 145.016 118.625 144.025 118.15C139.36 115.913 133.948 113.484 129.094 111.241C120.561 107.297 112.466 103.353 103.837 99.6462C101.243 100.646 98.6215 101.779 96.074 102.937C86.4481 107.314 76.4312 112.153 66.9368 116.617C65.9687 117.073 60.5221 119.092 60.3607 119.808C60.3116 120.025 60.4099 120.135 60.5905 120.228L87.1096 134.245C104.989 145.912 93.1973 173.308 71.9228 167.095C67.5919 165.831 59.5134 161.132 55.4089 158.717C44.815 152.485 39.0232 140.491 41.8934 128.152C42.2824 126.478 43.0539 124.857 43.3285 123.207C41.4692 122.205 39.503 121.328 37.6458 120.328C34.1483 118.443 30.264 116.343 27.459 113.416C17.0253 102.528 16.5209 86.5111 26.3658 74.965C30.3687 70.2697 36.0568 67.9081 41.3517 65.2195C41.7759 65.0047 43.0251 64.6959 43.2495 64.3283C43.7677 63.4831 42.588 61.7712 42.3326 60.88C39.9251 52.466 41.2662 44.2998 46.0385 37.2418C49.8523 31.6018 53.4342 29.3727 59.3712 26.1702C68.2576 21.3765 75.9247 16.4514 86.2152 21.2526L86.2173 21.2558ZM82.9528 31.9363C77.9529 28.2614 75.0495 30.5461 70.5465 32.7762C65.6844 35.1859 58.7589 37.8883 55.5735 42.261C52.6829 46.2286 51.3098 51.1986 52.3463 56.3193C52.4543 56.8536 53.1179 59.2558 53.5389 59.3167L72.0906 50.3993C78.3173 47.0782 87.6375 45.6687 85.729 36.2352C85.4661 34.9347 84.0224 32.7238 82.9517 31.9363H82.9528ZM137.881 33.0262C136.267 32.2259 133.4 30.5503 131.735 30.3387C125.022 29.4849 120.336 37.0366 124.268 42.6018C124.792 43.3445 125.546 43.8264 126.158 44.4665L154.194 58.8753C155.819 55.7219 155.885 51.5042 154.946 48.1104C152.666 39.8759 144.883 36.5002 137.881 33.0262ZM159.68 73.7907C159.157 73.5427 158.589 73.375 158.08 73.0865C156.873 73.1826 156.132 74.5472 155.237 75.2183C151.723 77.8513 147.582 79.2586 143.596 81.1404C135.268 85.0728 126.827 89.1356 118.077 92.9013C117.868 92.9921 117.666 93.5734 116.822 93.4291C117.866 94.1152 119.214 94.7766 120.379 95.3216C130.274 99.955 140.621 104.167 150.354 109.208C152.666 110.406 154.905 111.564 156.837 113.366C157.381 113.873 157.129 114.345 158.521 114.022C158.679 113.986 158.683 113.687 158.847 113.615C167.274 109.891 176.774 105.364 177.431 94.7467C178.161 82.9495 168.786 78.1035 159.679 73.7907H159.68ZM50.2904 73.3119C49.6802 73.0202 47.6553 74.372 47.0355 74.6541C44.0541 76.0144 40.967 77.3394 38.2923 79.0011C27.1651 85.9116 27.5552 101.635 38.5733 108.461C41.4297 110.231 45.3396 112.179 48.4129 113.617C48.7249 113.763 48.742 114.225 49.5808 114.214C50.1825 114.207 51.78 112.387 52.3923 111.934C57.1561 108.41 64.2974 105.877 69.7771 103.325C75.9877 100.434 82.5382 97.5603 88.5607 94.4945C89.1837 94.1771 90.1177 94.0521 90.6616 93.4291C89.6368 93.0701 88.5586 92.6608 87.5734 92.2035C79.7385 88.5639 71.5745 84.7618 63.8839 81.1415C59.9451 79.2875 56.2413 77.8972 52.4639 75.2194C51.7768 74.7332 50.7969 73.9296 50.2904 73.3119ZM53.4545 128.772C53.3861 128.739 53.369 128.065 53.0623 128.639C51.8751 130.855 51.8836 135.598 52.3474 138.067C53.7558 145.563 59.7784 148.971 65.7699 152.156C68.1315 153.412 75.4791 157.431 77.6953 157.414C78.8398 157.405 81.0496 156.584 81.9911 155.875C85.2898 153.393 86.0624 148.642 83.4636 145.318C81.5123 142.821 74.5259 139.967 71.552 138.373C65.6193 135.191 59.602 131.702 53.4545 128.772ZM154.532 128.416C151.812 129.375 149.223 130.825 146.645 132.146C142.575 134.231 138.522 136.613 134.517 138.857C129.311 141.775 120.804 144.23 122.713 152.027C122.755 152.201 123.085 152.145 123.136 152.337C123.903 155.188 126.483 157.076 129.562 157.201C134.193 157.389 140.288 152.046 144.765 150.631C146.742 149.411 148.848 148.256 150.51 146.516C155.238 141.566 156.671 134.974 154.532 128.416Z"></path></mask><path d="M86.2173 21.2558L86.4791 21.5796C100.9 29.3781 99.9871 48.5133 85.6969 56.0276C78.4092 59.8595 70.1372 62.9477 62.8367 66.9132C62.4509 67.1227 60.7369 67.7638 61.5853 68.2308C66.0681 70.695 71.3918 72.6355 76.0978 74.8154C82.3426 77.707 88.7563 80.8059 94.9797 83.7082C97.2077 84.1153 101.699 87.4248 103.628 87.4589C104.47 87.4739 106.214 86.6842 107.048 86.3188C118.716 81.2195 130.488 75.3016 141.853 70.0239C143.606 69.2096 145.339 68.4947 147.121 67.8141C147.141 66.9998 146.055 66.972 145.554 66.7027C137.843 62.5641 129.371 58.8208 121.795 54.4952C108.058 46.6518 108.996 26.7227 123.736 20.7781C132.099 17.4057 138.542 21.0998 145.961 24.9456C152.515 28.3426 158.649 31.9427 162.438 38.4482C166.997 46.2746 167.286 53.7611 164.579 62.0961C164.401 62.6432 164.189 63.5418 164.151 64.0847L174.048 69.1188C191.17 79.2415 193.304 102.829 177.69 115.546C173.702 118.793 168.473 120.623 164.125 123.304L166.076 129.625C167.69 144.238 161.465 153.697 149.26 160.265C144.481 162.836 138.384 166.775 132.893 167.704C117.446 170.32 106.465 153.727 114.236 140.376C118.197 133.571 127.307 131.181 133.348 126.913L147.122 119.912C146.695 118.878 145.016 118.625 144.025 118.15C139.36 115.913 133.948 113.484 129.094 111.241C120.561 107.297 112.466 103.353 103.837 99.6462C101.243 100.646 98.6215 101.779 96.074 102.937C86.4481 107.314 76.4312 112.153 66.9368 116.617C65.9687 117.073 60.5221 119.092 60.3607 119.808C60.3116 120.025 60.4099 120.135 60.5905 120.228L87.1096 134.245C104.989 145.912 93.1973 173.308 71.9228 167.095C67.5919 165.831 59.5134 161.132 55.4089 158.717C44.815 152.485 39.0232 140.491 41.8934 128.152C42.2824 126.478 43.0539 124.857 43.3285 123.207C41.4692 122.205 39.503 121.328 37.6458 120.328C34.1483 118.443 30.264 116.343 27.459 113.416C17.0253 102.528 16.5209 86.5111 26.3658 74.965C30.3687 70.2697 36.0568 67.9081 41.3517 65.2195C41.7759 65.0047 43.0251 64.6959 43.2495 64.3283C43.7677 63.4831 42.588 61.7712 42.3326 60.88C39.9251 52.466 41.2662 44.2998 46.0385 37.2418C49.8523 31.6018 53.4342 29.3727 59.3712 26.1702C68.2576 21.3765 75.9247 16.4514 86.2152 21.2526L86.2173 21.2558ZM82.9528 31.9363C77.9529 28.2614 75.0495 30.5461 70.5465 32.7762C65.6844 35.1859 58.7589 37.8883 55.5735 42.261C52.6829 46.2286 51.3098 51.1986 52.3463 56.3193C52.4543 56.8536 53.1179 59.2558 53.5389 59.3167L72.0906 50.3993C78.3173 47.0782 87.6375 45.6687 85.729 36.2352C85.4661 34.9347 84.0224 32.7238 82.9517 31.9363H82.9528ZM137.881 33.0262C136.267 32.2259 133.4 30.5503 131.735 30.3387C125.022 29.4849 120.336 37.0366 124.268 42.6018C124.792 43.3445 125.546 43.8264 126.158 44.4665L154.194 58.8753C155.819 55.7219 155.885 51.5042 154.946 48.1104C152.666 39.8759 144.883 36.5002 137.881 33.0262ZM159.68 73.7907C159.157 73.5427 158.589 73.375 158.08 73.0865C156.873 73.1826 156.132 74.5472 155.237 75.2183C151.723 77.8513 147.582 79.2586 143.596 81.1404C135.268 85.0728 126.827 89.1356 118.077 92.9013C117.868 92.9921 117.666 93.5734 116.822 93.4291C117.866 94.1152 119.214 94.7766 120.379 95.3216C130.274 99.955 140.621 104.167 150.354 109.208C152.666 110.406 154.905 111.564 156.837 113.366C157.381 113.873 157.129 114.345 158.521 114.022C158.679 113.986 158.683 113.687 158.847 113.615C167.274 109.891 176.774 105.364 177.431 94.7467C178.161 82.9495 168.786 78.1035 159.679 73.7907H159.68ZM50.2904 73.3119C49.6802 73.0202 47.6553 74.372 47.0355 74.6541C44.0541 76.0144 40.967 77.3394 38.2923 79.0011C27.1651 85.9116 27.5552 101.635 38.5733 108.461C41.4297 110.231 45.3396 112.179 48.4129 113.617C48.7249 113.763 48.742 114.225 49.5808 114.214C50.1825 114.207 51.78 112.387 52.3923 111.934C57.1561 108.41 64.2974 105.877 69.7771 103.325C75.9877 100.434 82.5382 97.5603 88.5607 94.4945C89.1837 94.1771 90.1177 94.0521 90.6616 93.4291C89.6368 93.0701 88.5586 92.6608 87.5734 92.2035C79.7385 88.5639 71.5745 84.7618 63.8839 81.1415C59.9451 79.2875 56.2413 77.8972 52.4639 75.2194C51.7768 74.7332 50.7969 73.9296 50.2904 73.3119ZM53.4545 128.772C53.3861 128.739 53.369 128.065 53.0623 128.639C51.8751 130.855 51.8836 135.598 52.3474 138.067C53.7558 145.563 59.7784 148.971 65.7699 152.156C68.1315 153.412 75.4791 157.431 77.6953 157.414C78.8398 157.405 81.0496 156.584 81.9911 155.875C85.2898 153.393 86.0624 148.642 83.4636 145.318C81.5123 142.821 74.5259 139.967 71.552 138.373C65.6193 135.191 59.602 131.702 53.4545 128.772ZM154.532 128.416C151.812 129.375 149.223 130.825 146.645 132.146C142.575 134.231 138.522 136.613 134.517 138.857C129.311 141.775 120.804 144.23 122.713 152.027C122.755 152.201 123.085 152.145 123.136 152.337C123.903 155.188 126.483 157.076 129.562 157.201C134.193 157.389 140.288 152.046 144.765 150.631C146.742 149.411 148.848 148.256 150.51 146.516C155.238 141.566 156.671 134.974 154.532 128.416Z" fill="black"></path><path d="M86.2173 21.2558L86.4791 21.5796C100.9 29.3781 99.9871 48.5133 85.6969 56.0276C78.4092 59.8595 70.1372 62.9477 62.8367 66.9132C62.4509 67.1227 60.7369 67.7638 61.5853 68.2308C66.0681 70.695 71.3918 72.6355 76.0978 74.8154C82.3426 77.707 88.7563 80.8059 94.9797 83.7082C97.2077 84.1153 101.699 87.4248 103.628 87.4589C104.47 87.4739 106.214 86.6842 107.048 86.3188C118.716 81.2195 130.488 75.3016 141.853 70.0239C143.606 69.2096 145.339 68.4947 147.121 67.8141C147.141 66.9998 146.055 66.972 145.554 66.7027C137.843 62.5641 129.371 58.8208 121.795 54.4952C108.058 46.6518 108.996 26.7227 123.736 20.7781C132.099 17.4057 138.542 21.0998 145.961 24.9456C152.515 28.3426 158.649 31.9427 162.438 38.4482C166.997 46.2746 167.286 53.7611 164.579 62.0961C164.401 62.6432 164.189 63.5418 164.151 64.0847L174.048 69.1188C191.17 79.2415 193.304 102.829 177.69 115.546C173.702 118.793 168.473 120.623 164.125 123.304L166.076 129.625C167.69 144.238 161.465 153.697 149.26 160.265C144.481 162.836 138.384 166.775 132.893 167.704C117.446 170.32 106.465 153.727 114.236 140.376C118.197 133.571 127.307 131.181 133.348 126.913L147.122 119.912C146.695 118.878 145.016 118.625 144.025 118.15C139.36 115.913 133.948 113.484 129.094 111.241C120.561 107.297 112.466 103.353 103.837 99.6462C101.243 100.646 98.6215 101.779 96.074 102.937C86.4481 107.314 76.4312 112.153 66.9368 116.617C65.9687 117.073 60.5221 119.092 60.3607 119.808C60.3116 120.025 60.4099 120.135 60.5905 120.228L87.1096 134.245C104.989 145.912 93.1973 173.308 71.9228 167.095C67.5919 165.831 59.5134 161.132 55.4089 158.717C44.815 152.485 39.0232 140.491 41.8934 128.152C42.2824 126.478 43.0539 124.857 43.3285 123.207C41.4692 122.205 39.503 121.328 37.6458 120.328C34.1483 118.443 30.264 116.343 27.459 113.416C17.0253 102.528 16.5209 86.5111 26.3658 74.965C30.3687 70.2697 36.0568 67.9081 41.3517 65.2195C41.7759 65.0047 43.0251 64.6959 43.2495 64.3283C43.7677 63.4831 42.588 61.7712 42.3326 60.88C39.9251 52.466 41.2662 44.2998 46.0385 37.2418C49.8523 31.6018 53.4342 29.3727 59.3712 26.1702C68.2576 21.3765 75.9247 16.4514 86.2152 21.2526L86.2173 21.2558ZM82.9528 31.9363C77.9529 28.2614 75.0495 30.5461 70.5465 32.7762C65.6844 35.1859 58.7589 37.8883 55.5735 42.261C52.6829 46.2286 51.3098 51.1986 52.3463 56.3193C52.4543 56.8536 53.1179 59.2558 53.5389 59.3167L72.0906 50.3993C78.3173 47.0782 87.6375 45.6687 85.729 36.2352C85.4661 34.9347 84.0224 32.7238 82.9517 31.9363H82.9528ZM137.881 33.0262C136.267 32.2259 133.4 30.5503 131.735 30.3387C125.022 29.4849 120.336 37.0366 124.268 42.6018C124.792 43.3445 125.546 43.8264 126.158 44.4665L154.194 58.8753C155.819 55.7219 155.885 51.5042 154.946 48.1104C152.666 39.8759 144.883 36.5002 137.881 33.0262ZM159.68 73.7907C159.157 73.5427 158.589 73.375 158.08 73.0865C156.873 73.1826 156.132 74.5472 155.237 75.2183C151.723 77.8513 147.582 79.2586 143.596 81.1404C135.268 85.0728 126.827 89.1356 118.077 92.9013C117.868 92.9921 117.666 93.5734 116.822 93.4291C117.866 94.1152 119.214 94.7766 120.379 95.3216C130.274 99.955 140.621 104.167 150.354 109.208C152.666 110.406 154.905 111.564 156.837 113.366C157.381 113.873 157.129 114.345 158.521 114.022C158.679 113.986 158.683 113.687 158.847 113.615C167.274 109.891 176.774 105.364 177.431 94.7467C178.161 82.9495 168.786 78.1035 159.679 73.7907H159.68ZM50.2904 73.3119C49.6802 73.0202 47.6553 74.372 47.0355 74.6541C44.0541 76.0144 40.967 77.3394 38.2923 79.0011C27.1651 85.9116 27.5552 101.635 38.5733 108.461C41.4297 110.231 45.3396 112.179 48.4129 113.617C48.7249 113.763 48.742 114.225 49.5808 114.214C50.1825 114.207 51.78 112.387 52.3923 111.934C57.1561 108.41 64.2974 105.877 69.7771 103.325C75.9877 100.434 82.5382 97.5603 88.5607 94.4945C89.1837 94.1771 90.1177 94.0521 90.6616 93.4291C89.6368 93.0701 88.5586 92.6608 87.5734 92.2035C79.7385 88.5639 71.5745 84.7618 63.8839 81.1415C59.9451 79.2875 56.2413 77.8972 52.4639 75.2194C51.7768 74.7332 50.7969 73.9296 50.2904 73.3119ZM53.4545 128.772C53.3861 128.739 53.369 128.065 53.0623 128.639C51.8751 130.855 51.8836 135.598 52.3474 138.067C53.7558 145.563 59.7784 148.971 65.7699 152.156C68.1315 153.412 75.4791 157.431 77.6953 157.414C78.8398 157.405 81.0496 156.584 81.9911 155.875C85.2898 153.393 86.0624 148.642 83.4636 145.318C81.5123 142.821 74.5259 139.967 71.552 138.373C65.6193 135.191 59.602 131.702 53.4545 128.772ZM154.532 128.416C151.812 129.375 149.223 130.825 146.645 132.146C142.575 134.231 138.522 136.613 134.517 138.857C129.311 141.775 120.804 144.23 122.713 152.027C122.755 152.201 123.085 152.145 123.136 152.337C123.903 155.188 126.483 157.076 129.562 157.201C134.193 157.389 140.288 152.046 144.765 150.631C146.742 149.411 148.848 148.256 150.51 146.516C155.238 141.566 156.671 134.974 154.532 128.416Z" stroke="black" stroke-width="2.86869" mask="url(#path-1-outside-1_39_2285)"></path><path d="M226.015 97.6751H256.996L241.161 47.76L239.612 54.817L226.015 97.6751ZM254.587 141.738C254.587 139.328 254.816 137.206 255.275 135.37C261.013 134.222 265.143 132.903 267.668 131.411L259.406 105.421H223.605L214.999 132.788C217.753 134.28 222.113 135.14 228.08 135.37C228.08 136.861 227.851 138.984 227.392 141.738H193.656C193.656 139.328 193.885 137.206 194.344 135.37C200.77 134.222 205.016 130.895 207.081 125.387L237.375 34.1624C241.161 33.0149 246.44 32.4412 253.21 32.4412L283.331 125.387C284.478 128.944 286.027 131.468 287.978 132.96C290.044 134.337 293.084 135.14 297.101 135.37C296.871 138.124 296.584 140.246 296.24 141.738H254.587ZM324.585 49.6533V132.96C327.913 134.337 331.814 135.14 336.289 135.37C336.289 135.714 336.289 136.345 336.289 137.263C336.289 138.181 336.117 139.673 335.773 141.738H296.357C296.357 141.164 296.357 140.304 296.357 139.156C296.357 138.009 296.586 136.747 297.045 135.37C300.947 134.796 303.701 133.935 305.307 132.788C307.029 131.64 307.889 129.575 307.889 126.592V43.2848C304.676 41.9079 300.66 41.1046 295.841 40.8751C295.841 38.1212 296.07 36.0557 296.529 34.6788H335.945C335.945 37.6622 335.773 39.7277 335.429 40.8751C331.527 41.3341 328.716 42.1947 326.995 43.457C325.388 44.6044 324.585 46.6699 324.585 49.6533ZM369.967 89.4133H382.876C390.794 89.4133 396.875 87.2331 401.121 82.8727C405.367 78.5123 407.489 72.7749 407.489 65.6606C407.489 58.5463 405.367 52.8089 401.121 48.4485C396.99 44.0881 390.908 41.9079 382.876 41.9079H369.967V89.4133ZM386.146 34.6788C397.965 34.6788 407.547 37.6622 414.891 43.6291C422.349 49.596 426.079 56.9972 426.079 65.8327C426.079 74.5535 422.407 81.8974 415.063 87.8642C407.719 93.8311 398.138 96.8145 386.319 96.8145H369.967V131.927C374.557 133.878 380.007 135.025 386.319 135.37C386.319 137.894 386.089 140.017 385.63 141.738H341.739C341.624 141.164 341.567 140.304 341.567 139.156C341.567 138.009 341.854 136.747 342.428 135.37C346.329 134.796 349.083 133.935 350.689 132.788C352.411 131.64 353.271 129.575 353.271 126.592V43.457C349.599 41.9652 345.641 41.1046 341.395 40.8751C341.395 40.5309 341.395 39.8998 341.395 38.9818C341.395 37.9491 341.567 36.5147 341.911 34.6788H386.146ZM521.76 49.6533V132.96C524.973 134.337 528.932 135.14 533.637 135.37C533.637 137.779 533.465 139.902 533.12 141.738H493.533C493.533 138.755 493.705 136.632 494.049 135.37C498.065 134.796 500.876 133.935 502.483 132.788C504.089 131.64 504.893 129.575 504.893 126.592V92.5115H457.387V132.96C460.715 134.337 464.616 135.14 469.091 135.37C469.091 135.714 469.091 136.345 469.091 137.263C469.091 138.181 468.919 139.673 468.575 141.738H429.159C429.159 141.164 429.159 140.304 429.159 139.156C429.159 138.009 429.389 136.747 429.848 135.37C433.749 134.796 436.503 133.935 438.11 132.788C439.831 131.64 440.691 129.575 440.691 126.592V43.2848C437.478 41.9079 433.462 41.1046 428.643 40.8751C428.643 38.1212 428.872 36.0557 429.331 34.6788H468.747C468.747 37.6622 468.575 39.7277 468.231 40.8751C464.329 41.3341 461.518 42.1947 459.797 43.457C458.19 44.6044 457.387 46.6699 457.387 49.6533V83.9055H504.893V43.2848C501.565 41.9079 497.664 41.1046 493.188 40.8751C493.188 40.5309 493.188 39.8998 493.188 38.9818C493.188 37.9491 493.36 36.5147 493.705 34.6788H533.293C533.407 35.2525 533.465 36.1131 533.465 37.2606C533.465 38.4081 533.178 39.6129 532.604 40.8751C528.703 41.3341 525.891 42.1947 524.17 43.457C522.564 44.6044 521.76 46.6699 521.76 49.6533ZM567.323 84.7661H580.06C594.633 84.7661 601.919 77.6517 601.919 63.423C601.919 49.0796 594.633 41.9079 580.06 41.9079H567.323V84.7661ZM634.106 135.025C634.106 137.55 633.876 139.787 633.417 141.738H609.493L588.666 99.9127C587.289 97.1588 585.797 95.2081 584.191 94.0606C582.699 92.7984 580.289 92.1673 576.962 92.1673H567.323V132.099C572.142 133.935 576.904 135.025 581.609 135.37C581.609 135.714 581.609 136.345 581.609 137.263C581.609 138.181 581.437 139.673 581.093 141.738H539.095C539.095 141.164 539.095 140.304 539.095 139.156C539.095 138.009 539.324 136.747 539.783 135.37C543.685 134.796 546.439 133.935 548.045 132.788C549.766 131.64 550.627 129.575 550.627 126.592V43.457C547.07 41.9652 543.054 41.1046 538.579 40.8751C538.579 38.1212 538.808 36.0557 539.267 34.6788H583.502C595.206 34.6788 604.214 37.2606 610.525 42.4242C616.951 47.5879 620.164 54.5875 620.164 63.423C620.164 70.0784 618.328 75.7584 614.656 80.463C610.984 85.1677 605.591 88.438 598.477 90.2739C601.575 91.8804 604.501 95.3228 607.255 100.601L620.164 125.042C622.115 128.944 624.065 131.583 626.016 132.96C627.967 134.337 630.663 135.025 634.106 135.025ZM726.267 128.313C716.17 138.755 704.064 143.976 689.95 143.976C675.836 143.976 663.845 139.042 653.976 129.173C644.108 119.305 639.174 105.994 639.174 89.2412C639.174 72.3733 644.567 58.661 655.353 48.1042C666.14 37.5475 679.393 32.2691 695.113 32.2691C706.588 32.2691 716.112 34.105 723.686 37.777C723.456 46.0388 722.423 54.358 720.587 62.7345C717.489 62.7345 715.768 62.6772 715.424 62.5624C715.194 56.3661 713.186 51.4319 709.399 47.76C705.728 43.9733 700.793 42.08 694.597 42.08C683.581 42.08 674.688 46.2109 667.918 54.4727C661.148 62.6198 657.763 73.7503 657.763 87.8642C657.763 101.978 661.206 112.937 668.09 120.739C675.09 128.427 683.811 132.272 694.253 132.272C704.81 132.272 714.162 129.518 722.309 124.01L726.267 128.313Z" fill="black"></path></g><defs><clipPath id="clip0_39_2285"><rect width="756" height="187" fill="white"></rect></clipPath></defs></svg>