<?xml version="1.0" encoding="utf-8"?>
<svg xmlns="http://www.w3.org/2000/svg" width="176" height="106" viewBox="0 0 176 106" fill="none">
<g clip-path="url(#clip0_2893_579)">
<path d="M149.148 100.541C148.943 100.541 148.025 100.512 147.821 100.47V97.7792C148.125 97.8204 148.435 97.8381 148.739 97.8381C150.165 97.8381 150.961 97.2846 151.376 95.883L151.569 95.1881L146.294 80.3069H149.949L153.481 92.226H153.545L157.066 80.3069H160.609L155.27 95.6651C154.019 99.3044 152.44 100.547 149.142 100.547M137.581 100.512C133.903 100.512 131.301 98.8451 131.044 96.2481H134.4C134.681 97.3199 136.003 97.9853 137.687 97.9853C139.874 97.9853 141.289 96.8605 141.289 95.0291V92.5028H141.207C140.423 94.0869 138.698 95.0821 136.582 95.0821C132.938 95.0821 130.5 92.2083 130.5 87.668C130.5 83.1277 132.898 80.1361 136.646 80.1361C138.57 80.0596 140.371 81.0901 141.283 82.792H141.347V80.301H144.639V94.77C144.639 98.3092 141.903 100.506 137.576 100.506L137.581 100.512ZM137.581 92.3556C139.821 92.3556 141.289 90.5359 141.289 87.6857C141.289 84.8354 139.815 82.951 137.581 82.951C135.348 82.951 133.938 84.8001 133.938 87.6974C133.938 90.5948 135.377 92.3614 137.581 92.3614V92.3556ZM121.781 92.6559C124.097 92.6559 125.477 90.8362 125.477 87.7269C125.477 84.6176 124.085 82.7979 121.781 82.7979C119.477 82.7979 118.103 84.6293 118.103 87.7269C118.103 90.8244 119.495 92.6559 121.781 92.6559ZM121.781 95.3589C117.442 95.3589 114.688 92.4498 114.688 87.7151C114.688 82.9804 117.466 80.1008 121.781 80.1008C126.097 80.1008 128.886 83.0217 128.886 87.6974C128.886 92.3732 126.167 95.3589 121.781 95.3589ZM108.975 95.141V74.6594H112.332V95.1587L108.975 95.1351V95.141ZM99.5255 92.6559C101.847 92.6559 103.221 90.8362 103.221 87.7269C103.221 84.6176 101.829 82.7979 99.5255 82.7979C97.2216 82.7979 95.8474 84.6293 95.8474 87.7269C95.8474 90.8244 97.2391 92.6559 99.5255 92.6559ZM99.5255 95.3589C95.1866 95.3589 92.4383 92.4498 92.4383 87.7151C92.4383 82.9804 95.21 80.1008 99.5255 80.1008C103.841 80.1008 106.63 83.0217 106.63 87.6974C106.63 92.3732 103.894 95.3589 99.5255 95.3589ZM77.2287 95.141V80.3069H80.4449V82.8862H80.5092C81.3747 81.0783 82.8716 80.1302 85.1347 80.1302C88.3976 80.1302 90.2571 82.209 90.2571 85.6363V95.141H86.9123V86.29C86.9123 84.1759 85.9182 82.9804 83.895 82.9804C81.8717 82.9804 80.5969 84.4468 80.5969 86.6198V95.1351H77.2346L77.2287 95.141ZM61.2357 95.141V74.6594H64.5512V82.9157H64.6214C65.4868 81.1078 67.0189 80.1597 69.2702 80.1597C72.5156 80.1597 74.4453 82.3327 74.4453 85.6952V95.1704H71.0771V86.3371C71.0771 84.2466 70.0362 82.9804 68.0013 82.9804C65.9663 82.9804 64.5922 84.4644 64.5922 86.6728V95.1292H61.2298L61.2357 95.141ZM59.4755 85.5539H56.312C56.0664 83.9874 54.9086 82.8509 53.0198 82.8509C50.8094 82.8509 49.3651 84.7236 49.3651 87.7092C49.3651 90.6949 50.8211 92.597 53.0315 92.597C54.8267 92.597 56.0138 91.6607 56.3237 89.9882H59.4931C59.2124 93.233 56.6862 95.3648 53.0198 95.3648C48.7453 95.3648 45.9735 92.4557 45.9735 87.721C45.9735 82.9863 48.7336 80.1067 52.9964 80.1067C56.8383 80.0949 59.2533 82.4799 59.4814 85.5539M41.0323 90.7243H44.2075C43.7748 93.4627 41.161 95.353 37.7343 95.353C33.3837 95.353 30.688 92.4439 30.688 87.774C30.688 83.1041 33.3954 80.089 37.6173 80.089C41.8393 80.089 44.3596 82.9274 44.3596 87.4207V88.5513H34.0094V88.7574C34.0094 91.1483 35.5181 92.7383 37.7694 92.7383C39.3892 92.7148 40.6405 91.9374 41.0323 90.7243ZM37.5823 82.7331C35.6175 82.7331 34.1907 84.17 34.0386 86.2841H41.0206C40.9505 84.1406 39.5821 82.7331 37.5823 82.7331ZM25.9924 95.141H22.5131V78.5108H16.6012V75.531H31.8867V78.4931H25.9924V95.141ZM119.267 57.7112H122.419C121.986 60.4496 119.372 62.3399 115.945 62.3399C111.583 62.3399 108.911 59.4543 108.911 54.7609C108.911 50.0674 111.618 47.0759 115.846 47.0759C120.074 47.0759 122.582 49.9143 122.582 54.4076V55.5382H112.244V55.7443C112.244 58.1352 113.753 59.7252 116.004 59.7252C117.624 59.7017 118.875 58.9243 119.261 57.7112V57.6995L119.267 57.7112ZM115.817 49.7141C113.846 49.7141 112.419 51.151 112.267 53.271H119.267C119.197 51.1274 117.817 49.7141 115.817 49.7141ZM93.6838 62.1456V47.2938H96.9058V49.8731H96.976C97.8414 48.0652 99.3384 47.1171 101.601 47.1171C104.864 47.1171 106.724 49.1959 106.724 52.6232V62.1279H103.367V53.2769C103.367 51.1628 102.373 49.9673 100.35 49.9673C98.3268 49.9673 97.0461 51.4337 97.0461 53.6067V62.122L93.6896 62.1456H93.6838ZM82.9827 62.3046C80.0824 62.3046 78.0065 60.5261 78.0065 57.8938C78.0065 55.2614 80.018 53.7362 83.7195 53.5066L87.5439 53.2769V52.1933C87.5439 50.621 86.4971 49.7671 84.6902 49.7671C83.1699 49.7671 82.0764 50.568 81.8483 51.7635H78.7491C78.831 49.0487 81.3396 47.1053 84.7896 47.1053C88.4678 47.1053 90.8536 49.0369 90.8536 51.9813V62.1514H87.6433V59.7606H87.5672C86.7544 61.3211 84.9358 62.2869 82.9827 62.2869V62.3104V62.3046ZM83.9651 59.7017C86.0001 59.7017 87.5497 58.4297 87.5497 56.6218V55.497L84.1815 55.7149C82.3454 55.8386 81.3747 56.5393 81.3747 57.7466C81.3747 58.9538 82.4038 59.6958 83.9651 59.6958V59.7017ZM54.7682 62.1338V47.2938H58.0136V49.9026H58.0838C58.7446 48.1653 60.4345 47.0523 62.2765 47.123C64.3524 47.123 65.8494 48.1771 66.3991 50.0674H66.4692C67.1826 48.2478 68.9486 47.123 71.0654 47.123C73.9658 47.123 75.878 49.0781 75.878 52.0343V62.1338H72.5215V52.847C72.5215 51.0038 71.5508 49.9556 69.8257 49.9556C68.1007 49.9556 66.9663 51.2158 66.9663 53.0237V62.122H63.7033V52.6586C63.7033 50.9861 62.68 49.9556 61.0485 49.9556C59.4171 49.9556 58.154 51.257 58.154 53.1061V62.122L54.7741 62.1338H54.7682ZM51.4819 47.2938V62.1338H48.2599V59.525H48.178C47.3711 61.3329 45.8975 62.3104 43.6637 62.3104C40.4593 62.3104 38.4477 60.214 38.4477 56.7984V47.2938H41.8042V56.133C41.8042 58.306 42.8451 59.4543 44.8215 59.4543C46.798 59.4543 48.1254 58.0057 48.1254 55.8032V47.2879H51.4819V47.2938ZM35.3836 62.122H31.9335V53.6243H22.4429V62.122H18.9636V42.512H22.4429V50.6563H31.9043V42.512H35.3543L35.3836 62.122ZM132.985 29.1089V14.2748H136.201V16.8541H136.272C136.646 15.2052 138.125 14.0569 139.804 14.1158C140.166 14.1099 140.529 14.1511 140.879 14.2512V17.3193C140.429 17.1839 139.961 17.1191 139.488 17.1309C137.523 17.1309 136.336 18.4323 136.336 20.517V29.1207H132.979L132.985 29.1089ZM123.641 26.6238C125.956 26.6238 127.331 24.8041 127.331 21.6948C127.331 18.5855 125.939 16.7658 123.641 16.7658C121.343 16.7658 119.963 18.5972 119.963 21.6948C119.963 24.7923 121.337 26.6238 123.629 26.6238H123.641ZM123.641 29.3209C119.302 29.3209 116.548 26.4177 116.548 21.6771C116.548 16.9366 119.325 14.0628 123.641 14.0628C127.956 14.0628 130.746 16.9837 130.746 21.6771C130.746 26.3706 127.991 29.3209 123.629 29.3209H123.641ZM109.227 29.1089V16.8836H107.221V14.2748H109.227V12.9439C109.227 10.1349 110.519 8.93946 113.688 8.93946C114.232 8.93357 114.782 8.98068 115.32 9.0749V11.5306C114.963 11.454 114.606 11.4187 114.244 11.4246C113.045 11.4246 112.542 11.931 112.542 13.0911V14.2748H115.331V16.8836H112.577V29.103H109.221L109.227 29.1089ZM92.4032 29.1089V14.2748H95.6252V16.8541H95.6954C96.0696 15.2052 97.549 14.0569 99.2273 14.1158C99.5898 14.1099 99.9524 14.1511 100.303 14.2512V17.3193C99.853 17.1839 99.3852 17.1191 98.9115 17.1309C96.9467 17.1309 95.7597 18.4323 95.7597 20.517V29.1207H92.3973L92.4032 29.1089ZM86.8655 24.6922H90.0174C89.5846 27.4306 86.9708 29.3209 83.5441 29.3209C79.1935 29.3209 76.4978 26.4177 76.4978 21.7478C76.4978 17.0779 79.2052 14.0628 83.4272 14.0628C87.6491 14.0628 90.1694 16.9012 90.1694 21.3945V22.531H79.8426V22.7371C79.8426 25.128 81.3513 26.718 83.6026 26.718C85.2224 26.6945 86.4796 25.9171 86.8655 24.704V24.6922ZM83.4155 16.701C81.4507 16.701 80.018 18.1379 79.8718 20.252H86.8538C86.7837 18.1085 85.4153 16.701 83.4155 16.701ZM68.855 10.9535H72.2115V14.2748H75.0008V16.8836H72.2115V24.704C72.2115 25.9289 72.7787 26.5119 73.995 26.5119C74.3284 26.5119 74.6617 26.4825 74.9891 26.4412V29.05C74.4044 29.1501 73.8138 29.1972 73.2232 29.1855C70.0947 29.1855 68.855 28.0489 68.855 25.1869V16.8895H66.8435V14.2807H68.855V10.9593V10.9535ZM52.0901 29.1089V14.2748H55.3062V16.8541H55.3764C56.2418 15.0462 57.7388 14.0981 60.0018 14.0981C63.2648 14.0981 65.1243 16.1769 65.1243 19.6042V29.1089H61.7678V20.2579C61.7678 18.1438 60.7737 16.9483 58.7504 16.9483C56.7272 16.9483 55.4524 18.4147 55.4524 20.5877V29.103H52.0959L52.0901 29.1089ZM46.5466 24.6922H49.6984C49.2657 27.4306 46.6518 29.3209 43.2252 29.3209C38.8746 29.3209 36.1788 26.4177 36.1788 21.7478C36.1788 17.0779 38.8863 14.0628 43.1082 14.0628C47.3301 14.0628 49.8504 16.9012 49.8504 21.3945V22.531H39.5236V22.7371C39.5236 25.128 41.0323 26.718 43.2836 26.718C44.9034 26.6945 46.1548 25.9171 46.5466 24.704V24.6922ZM43.0965 16.701C41.1317 16.701 39.6991 18.1379 39.5529 20.252H46.5349C46.4647 18.1085 45.0964 16.701 43.0965 16.701ZM26.0567 29.4328C20.5074 29.4328 16.9988 25.5873 16.9988 19.3039C16.9988 13.0205 20.5191 9.18679 26.0567 9.18679C30.571 9.18679 34.0094 12.0252 34.4421 16.2358H31.0154C30.6061 13.8213 28.4834 12.0841 26.0567 12.1666C22.7119 12.1666 20.5717 14.9343 20.5717 19.3098C20.5717 23.6852 22.7002 26.4412 26.0918 26.4412C28.6823 26.4412 30.5126 25.0456 31.0505 22.6841H34.4597C33.8515 26.877 30.6529 29.4328 26.0509 29.4328" fill="#F8F4EF"/>
<path d="M0 0L7.15742 0.435778V2.96211H3.23955V103.474H7.33285V106L0 105.564V0Z" fill="#F8F4EF"/>
<path d="M176 0.435547H168.843V2.96188L172.761 2.5261V103.038L168.667 103.473V106H176V0.435547Z" fill="#F8F4EF"/>
</g>
<defs>
<clipPath id="clip0_2893_579">
<rect width="176" height="106" fill="white"/>
</clipPath>
</defs>
</svg>