<svg width="147" height="61" viewBox="0 0 147 61" fill="none" xmlns="http://www.w3.org/2000/svg">
<path d="M30.9518 21.2419H28.6322V24.7012H32.7707V17.2185H40.1267V12.0209H38.8C38.6878 10.7057 38.3223 9.45954 37.7553 8.33426H32.6728V3.53384C32.221 3.33814 31.7519 3.17409 31.2684 3.04459V7.98315L28.6322 10.6194V20.2835H30.949V21.239L30.9518 21.2419ZM30.6036 12.7749C30.6036 11.3676 31.749 10.2251 33.1535 10.2251C34.5579 10.2251 35.7033 11.3676 35.7033 12.7749C35.7033 14.1823 34.5608 15.3248 33.1535 15.3248C31.7461 15.3248 30.6036 14.1794 30.6036 12.7749Z" fill="#4D4C4B"/>
<path d="M28.6321 21.2423V20.2869C27.5529 20.2869 26.6521 20.1487 25.593 19.8321C25.9499 20.7272 27.3371 21.2538 28.6321 21.2423Z" fill="#4D4C4B"/>
<path d="M30.3129 -4.00543e-05H28.6322V9.26697L30.3129 7.58625V-4.00543e-05Z" fill="#4D4C4B"/>
<path d="M33.1535 14.3694C34.0312 14.3694 34.7478 13.6556 34.7478 12.775C34.7478 11.8943 34.0341 11.1806 33.1535 11.1806C32.2728 11.1806 31.5591 11.8943 31.5591 12.775C31.5591 13.6556 32.2757 14.3694 33.1535 14.3694Z" fill="#4D4C4B"/>
<path d="M33.6313 4.00927V7.37935H37.2086C36.3078 5.98642 35.079 4.82661 33.6313 4.00927Z" fill="#4D4C4B"/>
<path d="M38.4691 18.1739H33.7262V24.2924C36.017 22.9686 37.7467 20.7785 38.4691 18.1739Z" fill="#4D4C4B"/>
<path d="M27.0954 12.7899C26.8393 11.8575 25.8378 11.2847 24.9082 11.2963C23.9786 11.2876 22.98 11.8718 22.7354 12.8101C23.1411 12.6316 23.5124 12.4964 23.8894 12.4043C23.9556 12.9194 24.3873 13.3195 24.9168 13.3195C25.4464 13.3195 25.8838 12.9165 25.9443 12.3956C26.3213 12.482 26.6925 12.6172 27.0983 12.7928L27.0954 12.7899Z" fill="#4D4C4B"/>
<path d="M12.5357 37.6088L12.5299 37.6146C12.0061 38.1413 11.4363 38.455 10.6967 38.7485C11.5054 39.209 12.5731 38.9183 13.1976 38.2765C13.8394 37.652 14.1301 36.5843 13.6696 35.7756C13.376 36.5152 13.0652 37.0822 12.5357 37.6088Z" fill="#4D4C4B"/>
<path d="M43.4164 28.6298H32.696V25.6569H28.6323V24.7014C27.2797 24.7014 25.9933 24.4079 24.8335 23.8812V23.8639H24.7932C21.6044 22.4019 19.3797 19.1815 19.3797 15.4488C19.3797 15.4488 19.3912 12.4615 19.4056 12.2428C20.5798 12.0787 21.6994 11.7449 22.7383 11.2643C22.9513 11.1664 23.1642 11.0686 23.3858 10.9937C23.8866 10.8211 24.3672 10.7232 24.9112 10.7175C25.6853 10.7175 26.3329 10.9045 27.0926 11.2326C26.8624 10.3894 26.022 9.83968 25.1731 9.75334C26.7674 8.48129 27.6711 6.53292 27.6711 4.49533V-4.00543e-05H27.5445C23.806 0.0344954 20.482 1.79581 18.3322 4.52986C16.6975 6.60487 15.8485 9.18926 15.837 11.8312L15.765 26.48C13.7274 25.182 11.238 24.6899 8.70541 25.0871C7.22614 25.3202 5.81019 25.8843 4.57843 26.7304C-0.77456 30.4084 -1.43361 37.6925 2.60128 42.2569V51.2102C2.60128 51.9527 2.77395 52.655 3.07901 53.2795C3.54236 54.2263 4.31078 54.9947 5.25762 55.4581C5.88214 55.7632 6.58436 55.9358 7.32687 55.9358C8.00319 55.9358 8.668 55.8351 9.30115 55.6365V60.7478H49.6328V34.8462C49.6328 31.4128 46.8498 28.6269 43.4164 28.6269V28.6298ZM24.8363 24.923C26.0105 25.395 27.2912 25.6569 28.6352 25.6569V29.8587C28.4712 29.8702 28.3676 29.8674 28.3474 29.8674H28.333H28.3215C28.2956 29.8674 25.8983 29.876 24.8363 28.0255V24.923ZM24.0794 28.6298C25.3918 30.7538 27.9819 30.8228 28.3071 30.8228H28.3244C28.3647 30.8228 28.4798 30.8228 28.6467 30.8142V36.6823C28.6467 36.6823 28.6467 36.6823 28.6439 36.6795L25.8551 33.7814C25.4839 33.3957 25.0119 33.1597 24.5169 33.0791C24.4277 33.0647 24.3356 33.0532 24.2435 33.0504C23.8463 33.0331 23.4434 33.1137 23.0721 33.2979L18.4041 28.6298H24.0823H24.0794ZM0.952209 35.37C0.952209 32.8432 1.93647 30.466 3.72368 28.6816C5.51089 26.8944 7.88519 25.9102 10.412 25.9102C12.9389 25.9102 15.3161 26.8944 17.1004 28.6816L22.2491 33.8303L20.9626 34.7052C20.3525 35.1196 19.9726 35.7787 19.9208 36.5154L19.7337 39.1919C19.6992 39.6956 19.397 40.1474 18.9452 40.3748L11.7704 43.9693C10.9214 43.6384 10.0638 43.2009 9.22344 42.6742C9.58606 42.7289 9.95157 42.7548 10.3171 42.7548C12.2021 42.7548 14.0872 42.0382 15.5233 40.6021C18.3926 37.7328 18.3926 33.0619 15.5233 30.1926C14.044 28.7133 12.0467 27.942 9.94005 28.0456C8.25358 28.1291 6.63616 28.7996 5.38425 29.9335C3.82153 31.3495 2.95526 33.3065 2.95526 35.3988C2.95526 37.3644 3.7208 39.2149 5.11085 40.605C6.8146 42.3087 8.71116 43.6499 10.6451 44.5334L7.67798 46.0213L3.62007 41.9605C1.89617 40.1848 0.949329 37.8537 0.949329 35.3757L0.952209 35.37ZM5.5483 39.6725C4.55541 38.5674 3.97693 37.1399 3.9165 35.6578C3.84455 33.8504 4.51511 32.1381 5.78716 30.8689C7.05922 29.5997 8.76873 28.9263 10.5761 28.9982C12.0582 29.0586 13.4857 29.6371 14.5908 30.63C17.3393 33.0993 17.4227 37.35 14.8441 39.9287C12.2654 42.5073 8.0147 42.4239 5.54542 39.6754L5.5483 39.6725ZM7.35565 54.9804C5.26626 54.9919 3.55675 53.2709 3.55675 51.1815V43.2412L7.49092 47.1782L19.374 41.2237C20.128 40.8439 20.6288 40.0956 20.6863 39.2552L20.8734 36.5787C20.905 36.1413 21.1353 35.7412 21.4979 35.4937L23.3254 34.2505C23.9067 33.8562 24.678 33.9368 25.1673 34.4433L27.956 37.3414C28.4482 37.8537 28.4942 38.6336 28.0654 39.2005L24.5284 43.8801C24.3212 44.1535 24.0737 44.3924 23.7945 44.5938L10.6135 53.9357C9.65514 54.6149 8.52986 54.9775 7.35565 54.9832V54.9804ZM10.2595 59.7808V55.2566C10.5732 55.1012 10.8783 54.9199 11.1689 54.7156L13.4281 53.1154L13.8282 53.5155C15.86 55.5473 18.525 56.5604 21.1928 56.5604C22.0332 56.5604 22.8736 56.4596 23.6938 56.2582L24.0132 59.7808H10.2624H10.2595ZM42.3141 53.6076V53.6306L31.9737 55.0005L27.107 51.9585L23.4204 53.2363L23.6074 55.2912C20.459 56.1172 16.968 55.2998 14.5045 52.8392L14.2224 52.5571L24.3528 45.3766C24.7126 45.1205 25.032 44.8126 25.2968 44.4614L28.5316 40.179C29.6914 41.6036 30.3735 43.2901 30.5807 45.0226C30.9462 45.0629 31.2858 45.1924 31.5765 45.3881C32.1722 45.7882 32.5636 46.4703 32.5636 47.2387V53.9587L41.3615 52.7931V40.4985H42.317V53.6076H42.3141Z" fill="#4D4C4B"/>
<path d="M30.3274 45.9609H25.6651C24.9945 45.9609 24.4448 46.4818 24.3959 47.1409C24.3959 47.1725 24.3901 47.2042 24.3901 47.2358V51.8866L27.2249 50.9024L31.6023 53.6393V47.2358C31.6023 46.5336 31.0296 45.9609 30.3274 45.9609ZM25.878 48.0676C25.5816 48.0676 25.3399 47.8258 25.3399 47.5294C25.3399 47.233 25.5816 46.9912 25.878 46.9912C26.1745 46.9912 26.4162 47.233 26.4162 47.5294C26.4162 47.8258 26.1773 48.0676 25.878 48.0676Z" fill="#4D4C4B"/>
<path d="M139.333 0.518032H65.2196C60.9861 0.518032 57.5527 3.95142 57.5527 8.18489V60.7708H146.999V8.18489C146.999 3.95142 143.566 0.518032 139.333 0.518032ZM68.2271 48.9453C69.6114 48.9453 70.6992 48.1568 70.8345 46.7178H74.3916C74.0117 49.8145 71.4849 51.9067 68.253 51.9067C64.6123 51.9067 62.1143 49.4893 62.1143 44.709C62.1143 39.9287 64.6123 37.8364 68.3623 37.8364C71.8389 37.8364 74.2046 39.8193 74.4204 42.9707H70.8633C70.6733 41.5835 69.6689 40.7691 68.3364 40.7691C66.8428 40.7691 65.6196 41.7188 65.6196 44.6255C65.6196 47.5323 66.8428 48.9453 68.2271 48.9453ZM87.518 51.5527H83.9579V43.2671C83.9579 41.2583 83.2787 40.6309 81.6757 40.6309C79.9087 40.6309 78.933 42.0987 78.933 43.8916V51.5527H75.4018V33.2979H78.933V39.9258C79.4482 38.7315 81.08 37.8336 82.873 37.8336C85.6157 37.8336 87.518 39.4366 87.518 42.0987V51.5527ZM100.592 51.5527H97.3059C97.1965 51.2275 97.1159 50.7642 97.0872 50.3584C96.2439 51.2822 94.8337 51.9067 93.0408 51.9067C89.9988 51.9067 88.5857 50.4131 88.5857 48.2402C88.5857 44.3838 91.1672 43.9492 94.7244 43.4599C96.4886 43.2153 96.9778 42.8613 96.9778 41.9375C96.9778 41.0684 96.1087 40.5532 94.7244 40.5532C93.1213 40.5532 92.4709 41.3418 92.3069 42.5361H89.0203C89.0749 39.7647 90.5945 37.8364 94.8884 37.8364C99.1823 37.8364 100.592 39.7388 100.592 43.106V51.5527ZM114.292 51.5527H110.732V43.4571C110.732 41.3936 110.133 40.8209 108.449 40.8209C106.602 40.8209 105.707 41.8541 105.707 43.8916V51.5527H102.175V38.1875H105.543V40.1446C106.357 38.6509 107.715 37.8364 109.862 37.8364C112.415 37.8364 114.292 39.3848 114.292 42.2915V51.5556V51.5527ZM128.517 51.688C128.517 55.7085 125.585 57.8814 121.863 57.8814C118.142 57.8814 115.4 55.7344 115.4 52.2866H118.686C118.686 53.8897 119.855 54.8394 121.619 54.8394C123.492 54.8394 124.986 53.7256 124.986 51.9585V49.7569C124.497 50.9513 123.058 51.6592 121.32 51.6592C116.919 51.6592 115.397 48.292 115.397 44.7867C115.397 40.6309 118.004 37.8336 121.236 37.8336C122.92 37.8336 124.143 38.4868 124.986 39.8424V38.1847H128.517V51.6851V51.688ZM136.219 49.1094C137.361 49.1094 138.366 48.5395 138.61 47.6157H142.251C141.436 50.3584 139.235 51.9067 136.383 51.9067C131.928 51.9067 129.7 49.4605 129.7 44.6255C129.7 40.4957 132.063 37.8336 136.167 37.8336C140.271 37.8336 142.441 40.4957 142.441 45.794H133.231C133.341 47.8028 134.48 49.1094 136.219 49.1094ZM145.385 30.6444H59.1701V8.18489C59.1701 4.84935 61.8841 2.13544 65.2196 2.13544H139.333C142.668 2.13544 145.382 4.84935 145.382 8.18489V30.6444H145.385Z" fill="#4D4C4B"/>
<path d="M122.079 40.904C120.096 40.904 119.063 42.2336 119.063 44.9792C119.063 47.3707 120.341 48.8903 122.079 48.8903C123.818 48.8903 125.095 47.4513 125.095 45.195C125.095 42.2883 124.091 40.904 122.079 40.904Z" fill="#4D4C4B"/>
<path d="M136.055 40.6335C134.641 40.6335 133.473 41.7213 133.338 43.5661H138.797C138.743 41.5832 137.439 40.6335 136.055 40.6335Z" fill="#4D4C4B"/>
<path d="M92.1168 47.886C92.1168 48.8904 92.7154 49.3797 93.8292 49.3797C95.6481 49.3797 97.0065 48.05 97.0352 46.4729L97.0611 45.0052C96.7072 45.3591 96.0826 45.5491 94.7789 45.7937C92.7701 46.1736 92.1168 46.7434 92.1168 47.886Z" fill="#4D4C4B"/>
<path d="M73.3268 11.4887C71.5454 11.4887 69.9251 12.3808 69.4128 13.5694V6.9818H65.9017V25.1273H69.4128V17.5122C69.4128 15.7308 70.3856 14.2717 72.1411 14.2717C73.7355 14.2717 74.409 14.8933 74.409 16.8906V25.1273H77.946V15.7308C77.946 13.0831 76.0551 11.4916 73.3297 11.4916L73.3268 11.4887Z" fill="#4D4C4B"/>
<path d="M87.9266 19.5094C87.9266 21.265 86.9827 22.5341 85.1983 22.5341C83.7133 22.5341 82.9564 21.7226 82.9564 20.0505V11.8426H79.4453V20.5915C79.4453 23.5069 81.3073 25.4783 83.9551 25.4783C85.7912 25.4783 87.1669 24.7761 88.0849 23.2623V25.1243H91.4061V11.8397H87.9238V19.5094H87.9266Z" fill="#4D4C4B"/>
<path d="M107.482 11.4888C105.808 11.4888 104.619 12.1363 103.891 13.5954C102.863 12.0557 102 11.4888 100.193 11.4888C98.3853 11.4888 97.1967 12.0298 96.3045 13.7854V11.8399H93.0093V25.1245H96.5204V17.0518C96.5204 15.3222 97.2485 14.4588 98.6529 14.4588C100.193 14.4588 100.76 14.9999 100.76 17.1324V25.1245H104.271V17.1871C104.271 15.5668 105.215 14.3523 106.513 14.3523C107.811 14.3523 108.591 15.4862 108.591 17.0806V25.1274H112.021V15.9208C112.021 13.4371 110.159 11.4916 107.485 11.4916L107.482 11.4888Z" fill="#4D4C4B"/>
<path d="M119.288 11.4888C115.023 11.4888 113.509 13.4055 113.454 16.1597H116.721C116.882 14.9711 117.529 14.1883 119.124 14.1883C120.499 14.1883 121.366 14.7006 121.366 15.5639C121.366 16.482 120.879 16.8331 119.124 17.0778C115.587 17.5641 113.022 17.9958 113.022 21.8292C113.022 23.9906 114.427 25.4756 117.452 25.4756C119.233 25.4756 120.638 24.854 121.475 23.9359C121.501 24.3417 121.584 24.7993 121.691 25.1245H124.957V16.7266C124.957 13.3796 123.498 11.4888 119.288 11.4888ZM121.42 20.0766C121.394 21.6422 120.042 22.966 118.234 22.966C117.126 22.966 116.534 22.4797 116.534 21.481C116.534 20.3471 117.181 19.7801 119.178 19.4031C120.473 19.1614 121.095 18.9714 121.446 18.6203L121.42 20.0795V20.0766Z" fill="#4D4C4B"/>
<path d="M134.175 11.4888C132.043 11.4888 130.693 12.3003 129.881 13.7854V11.8399H126.534V25.1245H130.045V17.5094C130.045 15.4834 130.938 14.4588 132.774 14.4588C134.449 14.4588 135.042 15.0258 135.042 17.0778V25.1245H138.579V15.9179C138.579 13.0285 136.716 11.4888 134.178 11.4888H134.175Z" fill="#4D4C4B"/>
</svg>
